# xmcd
#
# Track frame offsets: 
#        150
#        17181
#        34915
#        55533
#        74382
#        94321
#        114538
#        132043
#        153285
#        166709
#        182782
#        200399
#        219840
#        233338
#
# Disc length: 3415 seconds
#
# Revision: 10
# Processed by: cddbd v1.5.2PL0 Copyright (c) Steve Scherf et al.
# Submitted via: ExactAudioCopy v1.0b2
#
DISCID=ae0d550e
DTITLE=Eddy Mitchell - Jambalaya
DYEAR=2006
DGENRE=Français
TTITLE0=Ma nouvelle Orléans
TTITLE1=Le seul survivant
TTITLE2=Comme la planète
TTITLE3=Ca le fait
TTITLE4=Les caresses
TTITLE5=On veut des légendes
TTITLE6=L'arche de Noé revisitée
TTITLE7=Paloma dort
TTITLE8=L'amour se trouve au coin de la rue
TTITLE9=Y'a un bon Dieu
TTITLE10=Excusez votre honneur
TTITLE11=Je ne t'en veux pas
TTITLE12=Elle est terrible
TTITLE13=Jambalaya
EXTD=YEAR: 2006
EXTT0=
EXTT1=
EXTT2=
EXTT3=
EXTT4=
EXTT5=
EXTT6=
EXTT7=
EXTT8=
EXTT9=
EXTT10=
EXTT11=
EXTT12=
EXTT13=
PLAYORDER=
